<svg xmlns="http://www.w3.org/2000/svg" xmlns:xlink="http://www.w3.org/1999/xlink" viewBox="0 0 731.99 222.26"><defs><style>.a{opacity:0.5;mix-blend-mode:multiply;}.b{mask:url(#a);}.c{fill:#6969ff;}.d{filter:url(#b);}</style><filter id="b" x="-154.53" y="-118.52" width="890.43" height="397.54" filterUnits="userSpaceOnUse" color-interpolation-filters="sRGB"><feFlood flood-color="#fff" result="bg"/><feBlend in="SourceGraphic" in2="bg"/></filter><mask id="a" x="-154.53" y="-118.52" width="890.43" height="397.54" maskUnits="userSpaceOnUse"><g class="d"><image class="a" width="1920" height="1080" transform="translate(-154.53 -118.52) scale(0.46 0.37)" xlink:href="../texture-2.png"/></g></mask></defs><g class="b"><path class="c" d="M43.71,221a2.9,2.9,0,0,0,4.1,0L91.2,177.53h0a1.14,1.14,0,0,0,.32-.77V46.61a1.09,1.09,0,0,0-1.09-1.09H60a1.09,1.09,0,0,0-1.09,1.09V163.22a1.06,1.06,0,0,1-.32.77l-12,12.06a1.08,1.08,0,0,1-1.54,0L33,164a1.06,1.06,0,0,1-.32-.77V46.61a1.09,1.09,0,0,0-1.09-1.09H1.09A1.09,1.09,0,0,0,0,46.61V176.76a1.09,1.09,0,0,0,.32.77h0Z"/><rect class="c" y="0.75" width="91.52" height="32.69" rx="2.05"/><rect class="c" x="513.4" y="119.73" width="171.95" height="32.69" rx="2.05" transform="translate(735.45 -463.3) rotate(90)"/><rect class="c" x="476.35" y="189.57" width="95.64" height="32.69" rx="2.05"/><rect class="c" x="519.86" y="0.54" width="95.64" height="32.69" rx="2.05"/><rect class="c" x="538.42" y="102.21" width="34.88" height="32.26" transform="translate(437.53 674.2) rotate(-90)"/><path class="c" d="M464.15.59H434.54A1.54,1.54,0,0,0,433,2.13v41L391.42,1.59l-.16-.13a1.54,1.54,0,0,0-1.38-.87H360.27a1.54,1.54,0,0,0-1.54,1.54v218a1.54,1.54,0,0,0,1.54,1.54h29.61a1.54,1.54,0,0,0,1.54-1.54v-41l41.77,41.77a1.53,1.53,0,0,0,1.35.81h29.61a1.54,1.54,0,0,0,1.54-1.54V2.13A1.54,1.54,0,0,0,464.15.59ZM391.42,47.81,433,89.39v85.06l-41.58-41.58Z"/><path class="c" d="M730.45.59H700.84a1.53,1.53,0,0,0-1.53,1.54v41L657.72,1.59l-.15-.13a1.54,1.54,0,0,0-1.38-.87H626.58A1.54,1.54,0,0,0,625,2.13v218a1.54,1.54,0,0,0,1.54,1.54h29.61a1.54,1.54,0,0,0,1.54-1.54v-41l41.77,41.77a1.53,1.53,0,0,0,1.34.81h29.61a1.54,1.54,0,0,0,1.54-1.54V2.13A1.54,1.54,0,0,0,730.45.59ZM657.73,47.81l41.58,41.58v85.06l-41.58-41.58Z"/><path class="c" d="M241.93,187.71V3.05a3.06,3.06,0,0,0-3.06-3H212.72a3.06,3.06,0,0,0-3.05,3.05V218.43a3,3,0,0,0,3.05,3h135A1.52,1.52,0,0,0,349.2,220V190.74a1.52,1.52,0,0,0-1.52-1.51H243.44A1.51,1.51,0,0,1,241.93,187.71Z"/><path class="c" d="M120,95.46h128.1a0,0,0,0,1,0,0v32.26a0,0,0,0,1,0,0H120a2,2,0,0,1-2-2V97.51A2,2,0,0,1,120,95.46Z" transform="translate(71.45 294.62) rotate(-90)"/><rect class="c" x="102.77" y="189.04" width="96.39" height="32.69" rx="2.05"/><rect class="c" x="102.77" y="120.02" width="96.39" height="32.69" rx="2.05"/><path class="c" d="M55.59,95.55H183.51a0,0,0,0,1,0,0v32.26a0,0,0,0,1,0,0H55.59a2,2,0,0,1-2-2V97.6A2,2,0,0,1,55.59,95.55Z" transform="translate(6.85 230.2) rotate(-90)"/><path class="c" d="M166.91,49.51c0-21.5-32.26-21.5-32.26,0H102.4c0-64.51,96.77-64.51,96.77,0Z"/><path class="c" d="M225.67,75.3h87.41a0,0,0,0,1,0,0v32.26a0,0,0,0,1,0,0H225.67a2,2,0,0,1-2-2V77.35A2,2,0,0,1,225.67,75.3Z" transform="translate(176.92 359.78) rotate(-90)"/><path class="c" d="M305.19,60.3h57.4a0,0,0,0,1,0,0V92.55a0,0,0,0,1,0,0h-57.4a2,2,0,0,1-2-2V62.35A2,2,0,0,1,305.19,60.3Z" transform="translate(256.44 409.29) rotate(-90)"/><path class="c" d="M276.68,73.8h57.4a0,0,0,0,1,0,0v32.26a0,0,0,0,1,0,0h-57.4a2,2,0,0,1-2-2V75.85A2,2,0,0,1,276.68,73.8Z"/><path class="c" d="M316.74,49.51c0-21.5-32.26-21.5-32.26,0H252.22C252.22-15,349-15,349,49.51Z"/><path class="c" d="M349,133.91c0,64.51-96.77,64.51-96.77,0h32.26c0,21.5,32.26,21.5,32.26,0Z"/><path class="c" d="M570.46,50.8h-63V1.89A1.52,1.52,0,0,0,506,.37H476.74a1.52,1.52,0,0,0-1.52,1.52V133.1a3,3,0,0,0,3,3.05h26.16a3,3,0,0,0,3.05-3.05V83.48h63A1.54,1.54,0,0,0,572,81.94V52.33A1.53,1.53,0,0,0,570.46,50.8Z"/><path class="c" d="M572,133.9c0,64.52-96.77,64.52-96.77,0h32.26c0,21.51,32.26,21.51,32.26,0Z"/></g></svg>